<?xml version="1.0" standalone="no"?>
<!DOCTYPE svg PUBLIC "-//W3C//DTD SVG 20010904//EN"
 "http://www.w3.org/TR/2001/REC-SVG-20010904/DTD/svg10.dtd">
<svg version="1.0" xmlns="http://www.w3.org/2000/svg"
 width="200.000000pt" height="124.000000pt" viewBox="0 0 200.000000 124.000000"
 preserveAspectRatio="xMidYMid meet">

<g transform="translate(0.000000,124.000000) scale(0.100000,-0.100000)"
fill="#000000" stroke="none">
<path d="M1300 1098 c0 -4 18 -44 40 -89 22 -46 40 -88 40 -94 0 -6 -64 -24
-142 -39 -133 -27 -228 -53 -153 -42 115 18 297 38 301 34 4 -5 -17 -81 -69
-250 -8 -27 -11 -45 -6 -42 5 3 9 9 9 14 0 12 110 263 120 274 5 4 33 -1 64
-13 31 -11 56 -19 56 -17 0 2 -29 20 -64 40 -56 31 -71 47 -122 123 -60 92
-74 111 -74 101z"/>
<path d="M182 638 c-62 -30 -95 -84 -100 -163 -6 -98 34 -162 121 -191 96 -32
209 0 257 72 22 32 25 49 25 118 0 69 -3 86 -24 115 -50 70 -187 94 -279 49z
m181 -76 c27 -27 34 -106 14 -154 -42 -101 -179 -79 -194 30 -12 90 43 158
121 148 21 -2 48 -13 59 -24z"/>
<path d="M645 637 c-77 -43 -115 -162 -81 -252 33 -86 107 -121 235 -112 40 3
77 9 81 14 4 4 10 23 14 42 5 29 4 32 -12 26 -9 -4 -49 -10 -88 -12 -67 -5
-73 -4 -103 23 -21 19 -34 42 -38 67 l-6 37 142 0 141 0 0 43 c0 51 -28 100
-72 127 -48 29 -159 28 -213 -3z m167 -54 c10 -9 18 -29 18 -45 l0 -28 -85 0
c-96 0 -103 7 -59 59 21 25 33 31 67 31 24 0 48 -7 59 -17z"/>
<path d="M1048 644 c-76 -41 -62 -118 36 -193 64 -49 73 -67 49 -94 -15 -16
-26 -18 -68 -13 -27 3 -59 8 -71 11 -20 6 -21 4 -15 -32 5 -32 11 -39 36 -44
108 -23 212 8 229 68 13 49 -8 86 -80 143 -35 28 -64 56 -64 64 0 33 57 47
126 32 28 -6 31 -4 41 28 10 33 10 34 -19 40 -57 11 -172 6 -200 -10z"/>
<path d="M1414 650 c-36 -14 -71 -129 -78 -257 l-6 -113 53 0 54 0 6 183 c3
100 2 185 -1 188 -4 4 -16 3 -28 -1z"/>
<path d="M1604 650 c-23 -7 -33 -17 -37 -37 -3 -16 -4 -29 -3 -31 2 -1 33 5
69 14 73 18 122 12 141 -18 18 -29 -17 -53 -112 -78 -67 -18 -94 -31 -119 -56
-44 -43 -45 -90 -4 -136 25 -29 35 -32 92 -35 70 -4 83 1 93 35 7 21 5 22 -41
22 -54 0 -73 12 -73 47 0 26 31 49 92 68 24 7 51 16 62 21 17 7 18 2 11 -90
l-7 -96 49 0 50 0 6 107 c12 192 10 216 -19 244 -23 22 -35 24 -122 26 -53 1
-111 -2 -128 -7z"/>
<path d="M1545 183 c0 -31 -31 -45 -47 -21 -8 10 -9 10 -5 -2 2 -9 15 -15 30
-15 33 1 35 -12 5 -25 -14 -5 -17 -9 -7 -9 8 -1 20 4 27 11 13 13 17 88 4 88
-4 0 -8 -12 -7 -27z"/>
<path d="M1580 180 c0 -39 6 -39 12 0 3 17 1 30 -4 30 -4 0 -8 -13 -8 -30z"/>
<path d="M1621 190 c-1 -30 15 -50 40 -50 19 0 30 21 28 53 -1 16 -3 14 -8 -8
-4 -21 -12 -30 -26 -30 -14 0 -22 9 -26 30 -6 28 -7 28 -8 5z"/>
<path d="M1711 158 c1 -32 4 -45 7 -33 5 13 16 20 31 20 13 0 26 7 28 15 4 12
3 12 -5 2 -16 -24 -47 -10 -47 21 1 15 -3 27 -7 27 -4 0 -8 -24 -7 -52z"/>
<path d="M1805 190 c-14 -44 44 -67 69 -28 8 14 6 21 -9 35 -17 16 -18 17 -6
1 17 -23 7 -48 -19 -48 -25 0 -37 25 -20 45 8 9 8 15 2 15 -6 0 -14 -9 -17
-20z"/>
</g>
</svg>
