<?xml version="1.0" standalone="no"?>
<!DOCTYPE svg PUBLIC "-//W3C//DTD SVG 20010904//EN"
 "http://www.w3.org/TR/2001/REC-SVG-20010904/DTD/svg10.dtd">
<svg version="1.0" xmlns="http://www.w3.org/2000/svg"
 width="129.000000pt" height="61.000000pt" viewBox="0 0 129.000000 61.000000"
 preserveAspectRatio="xMidYMid meet">

<g transform="translate(0.000000,61.000000) scale(0.100000,-0.100000)"
fill="#000000" stroke="none">
<path d="M866 502 c18 -39 17 -41 -28 -53 l-33 -8 38 2 39 3 -7 -34 c-3 -18
-8 -41 -11 -50 -2 -9 5 4 17 31 12 26 27 47 35 47 8 0 5 8 -9 23 -12 12 -30
33 -40 47 -17 25 -17 24 -1 -8z"/>
<path d="M768 433 c6 -2 18 -2 25 0 6 3 1 5 -13 5 -14 0 -19 -2 -12 -5z"/>
<path d="M180 302 c-66 -33 -82 -121 -31 -173 25 -25 37 -29 85 -29 43 0 61 5
81 22 56 49 48 149 -15 180 -44 23 -76 23 -120 0z m102 -39 c11 -10 18 -30 18
-53 0 -93 -111 -111 -126 -20 -11 68 60 117 108 73z"/>
<path d="M454 306 c-44 -20 -71 -89 -54 -140 16 -51 43 -66 116 -66 57 0 74 8
74 34 0 2 -23 1 -50 -2 -58 -5 -90 14 -90 55 0 22 3 23 80 23 78 0 80 1 80 24
0 63 -88 103 -156 72z m90 -32 c31 -31 20 -44 -39 -44 -59 0 -67 8 -35 40 24
24 53 26 74 4z"/>
<path d="M682 304 c-35 -24 -28 -59 20 -103 29 -28 39 -43 34 -56 -5 -14 -15
-17 -52 -12 -38 4 -45 2 -42 -12 4 -20 96 -28 128 -11 35 19 26 63 -21 104
-51 43 -48 66 10 66 49 0 64 25 19 34 -48 10 -72 7 -96 -10z"/>
<path d="M1018 313 c-16 -2 -28 -10 -28 -18 0 -10 12 -12 55 -8 45 5 56 3 61
-11 9 -24 -11 -43 -54 -51 -84 -16 -118 -55 -88 -100 13 -20 25 -25 61 -25 25
0 45 5 45 10 0 6 -11 10 -24 10 -51 0 -57 50 -8 68 76 30 75 30 70 -32 -5 -56
-5 -56 24 -56 l28 0 0 94 c0 71 -4 97 -15 106 -16 14 -84 21 -127 13z"/>
<path d="M870 264 c-13 -28 -20 -68 -20 -105 0 -59 0 -59 30 -59 l30 0 0 105
c0 117 -10 131 -40 59z"/>
</g>
</svg>
